#!OML:ASF E:\Style4\Style4.ASF
:FULLY-SPECIFIED
:DEGREES
816
root 0.186069 17.3906 -3.09741 15.9681 3.79403 4.60903
lowerback 21.9257 2.32239 -0.210303
upperback 12.5502 3.00069 1.18947
thorax 1.38346 1.46496 0.786992
lowerneck 6.53949 -15.9478 -7.26307
upperneck 19.4334 -21.6721 4.14809
head 6.19267 -10.6002 1.50233
rclavicle 3.18055e-015 -3.18055e-014
rhumerus 68.1453 2.77086 -449.509
rradius 11.4714
rwrist 405.831
rhand -11.9327 18.3523
rfingers 7.12502
rthumb 14.1219 -11.1478
lclavicle 3.18055e-015 -3.18055e-014
lhumerus 69.6164 25.5738 36.2179
lradius 120.308
lwrist 51.4398
lhand 8.40528 29.6913
lfingers 7.12502
lthumb 33.6123 56.5603
rfemur -46.4023 -9.10386 16.1247
rtibia 44.5405
rfoot -12.6664 -16.624
rtoes -8.45122
lfemur -44.0422 -1.53363 -24.1433
ltibia 38.3436
lfoot -9.95664 8.4549
ltoes -13.8706
817
root 0.194871 17.3852 -3.0996 15.9892 3.68131 4.57884
lowerback 21.8939 2.33276 -0.159489
upperback 12.5474 3.02125 1.17269
thorax 1.39899 1.47799 0.73749
lowerneck 6.51827 -15.9652 -7.17492
upperneck 19.357 -21.6883 4.13044
head 6.16052 -10.6052 1.48713
rclavicle -2.8625e-014 7.95139e-016
rhumerus 68.1093 2.71348 -449.67
rradius 11.4571
rwrist 406.084
rhand -13.0445 18.4807
rfingers 7.12502
rthumb 13.0503 -11.0911
lclavicle -2.8625e-014 7.95139e-016
lhumerus 69.7185 25.5701 36.3242
lradius 120.121
lwrist 51.1146
lhand 8.601 29.5196
lfingers 7.12502
lthumb 33.7983 56.3479
rfemur -46.5058 -9.04595 16.117
rtibia 44.61
rfoot -12.6563 -16.5812
rtoes -8.48929
lfemur -44.1528 -1.44365 -24.1626
ltibia 38.4807
lfoot -10.0327 8.45743
ltoes -13.4558
818
root 0.202623 17.3773 -3.10189 15.9612 3.60741 4.58294
lowerback 21.8938 2.32729 -0.138315
upperback 12.5603 3.01695 1.16089
thorax 1.41513 1.47716 0.714283
lowerneck 6.49789 -15.9877 -7.08588
upperneck 19.4337 -21.6952 3.9832
head 6.16288 -10.6079 1.42958
rclavicle 1.43125e-014 -1.59028e-014
rhumerus 68.0759 2.8305 -449.276
rradius 11.4971
rwrist 405.718
rhand -13.9053 18.6894
rfingers 7.12502
rthumb 12.2204 -10.9336
lclavicle 1.43125e-014 -1.59028e-014
lhumerus 69.6906 25.7245 36.3721
lradius 120.18
lwrist 51.3533
lhand 8.55455 29.5791
lfingers 7.12502
lthumb 33.7541 56.4171
rfemur -46.5675 -9.04154 16.0863
rtibia 44.7154
rfoot -12.6479 -16.5863
rtoes -8.48871
lfemur -44.2247 -1.38727 -24.2131
ltibia 38.6545
lfoot -10.1242 8.46892
ltoes -13.6435
819
root 0.209865 17.3689 -3.10406 15.9059 3.59274 4.54965
lowerback 21.9342 2.31426 -0.0534425
upperback 12.571 3.01481 1.16779
thorax 1.41112 1.48021 0.673123
lowerneck 6.46798 -15.9851 -7.13244
upperneck 19.5156 -21.7011 4.02083
head 6.20387 -10.6092 1.4392
rclavicle -1.43125e-014 3.97569e-015
rhumerus 68.0027 2.76743 -449.331
rradius 11.4988
rwrist 405.82
rhand -14.5788 19.1203
rfingers 7.12502
rthumb 11.5709 -10.5403
lclavicle -1.43125e-014 3.97569e-015
lhumerus 69.6756 25.6802 36.312
lradius 120.342
lwrist 51.7993
lhand 8.28829 29.8362
lfingers 7.12502
lthumb 33.5011 56.7294
rfemur -46.5924 -9.05794 16.1012
rtibia 44.856
rfoot -12.7245 -16.5633
rtoes -8.53307
lfemur -44.2892 -1.35739 -24.2189
ltibia 38.8632
lfoot -10.2085 8.48876
ltoes -14.0248
820
root 0.218459 17.3584 -3.10761 15.8458 3.5782 4.53364
lowerback 21.9626 2.29305 0.0171289
upperback 12.5921 2.99977 1.16985
thorax 1.42421 1.47633 0.638219
lowerneck 6.45625 -15.962 -7.17792
upperneck 19.4613 -21.6887 4.136
head 6.20499 -10.6017 1.47932
rclavicle 6.36111e-015 -1.11319e-014
rhumerus 67.9113 2.70544 -449.526
rradius 11.4652
rwrist 406.094
rhand -15.2929 19.4984
rfingers 7.12502
rthumb 10.8822 -10.1996
lclavicle 6.36111e-015 -1.11319e-014
lhumerus 69.71 25.4465 36.3103
lradius 120.396
lwrist 51.7298
lhand 8.38777 30.044
lfingers 7.12502
lthumb 33.5956 56.9167
rfemur -46.6493 -9.10549 16.1065
rtibia 45.0418
rfoot -12.8154 -16.4855
rtoes -8.49192
lfemur -44.3634 -1.36078 -24.2314
ltibia 39.1027
lfoot -10.3172 8.45694
ltoes -13.9819
821
root 0.227564 17.3466 -3.10863 15.8326 3.48358 4.57427
lowerback 21.8988 2.29665 -0.0146704
upperback 12.6303 2.99748 1.14438
thorax 1.49765 1.47431 0.633036
lowerneck 6.52656 -15.9684 -7.06355
upperneck 19.4014 -21.6839 4.07506
head 6.15472 -10.5979 1.45796
rclavicle 2.54444e-014 -8.74653e-015
rhumerus 67.8361 2.75928 -449.445
rradius 11.4655
rwrist 406.193
rhand -15.8722 19.6485
rfingers 7.12502
rthumb 10.3234 -10.0781
lclavicle 2.54444e-014 -8.74653e-015
lhumerus 69.6787 25.4264 36.3535
lradius 120.451
lwrist 51.7266
lhand 8.5145 30.0533
lfingers 7.12502
lthumb 33.7161 56.8996
rfemur -46.7835 -9.1288 16.0439
rtibia 45.2723
rfoot -12.9262 -16.3862
rtoes -8.46393
lfemur -44.4977 -1.28085 -24.3382
ltibia 39.3801
lfoot -10.4808 8.38778
ltoes -13.762
822
root 0.235729 17.3328 -3.10793 15.8002 3.39098 4.56779
lowerback 21.9118 2.31144 0.0421421
upperback 12.6642 3.02473 1.12488
thorax 1.53264 1.49142 0.575455
lowerneck 6.63234 -15.9911 -7.08341
upperneck 19.4652 -21.722 4.11012
head 6.16753 -10.6153 1.47439
rclavicle -3.81667e-014 2.3059e-014
rhumerus 67.7678 2.68246 -449.511
rradius 11.4563
rwrist 406.435
rhand -16.2503 19.8204
rfingers 7.12502
rthumb 9.95865 -9.92402
lclavicle -3.81667e-014 2.3059e-014
lhumerus 69.7222 25.5727 36.4718
lradius 120.376
lwrist 51.6308
lhand 8.80218 29.9082
lfingers 7.12502
lthumb 33.9894 56.6943
rfemur -46.9167 -9.10724 16.0098
rtibia 45.5501
rfoot -13.0717 -16.3246
rtoes -8.40574
lfemur -44.6356 -1.14821 -24.4093
ltibia 39.688
lfoot -10.6555 8.32246
ltoes -13.7524
823
root 0.240911 17.3147 -3.11287 15.7027 3.32788 4.61194
lowerback 22.1135 2.32949 0.0602018
upperback 12.6843 3.04981 1.09858
thorax 1.45873 1.50581 0.5252
lowerneck 6.61546 -16.0134 -7.15222
upperneck 19.6414 -21.7696 4.18541
head 6.24662 -10.6333 1.49165
rclavicle -6.36111e-015 -7.95139e-016
rhumerus 67.7076 2.49524 -449.892
rradius 11.3278
rwrist 406.957
rhand -16.5654 19.9026
rfingers 7.12502
rthumb 9.65466 -9.85616
lclavicle -6.36111e-015 -7.95139e-016
lhumerus 69.8719 25.6585 36.5648
lradius 120.208
lwrist 51.4947
lhand 9.09265 29.8593
lfingers 7.12502
lthumb 34.2652 56.5838
rfemur -47.045 -9.0804 15.9187
rtibia 45.8752
rfoot -13.1594 -16.3358
rtoes -8.44843
lfemur -44.7365 -1.02919 -24.5254
ltibia 40.0254
lfoot -10.7796 8.25676
ltoes -13.8472
824
root 0.244399 17.2952 -3.12127 15.5441 3.30562 4.7076
lowerback 22.4431 2.3263 0.0463353
upperback 12.6988 3.04236 1.05107
thorax 1.31661 1.50337 0.471756
lowerneck 6.48092 -16.01 -7.22933
upperneck 19.9276 -21.7894 4.27777
head 6.38115 -10.6332 1.50191
rclavicle 2.06736e-014 1.43125e-014
rhumerus 67.6081 2.23514 -450.552
rradius 11.1734
rwrist 407.806
rhand -16.827 20.0601
rfingers 7.12502
rthumb 9.40231 -9.71014
lclavicle 2.06736e-014 1.43125e-014
lhumerus 70.0389 25.5496 36.5301
lradius 120.123
lwrist 51.571
lhand 9.03169 30.0566
lfingers 7.12502
lthumb 34.2074 56.7941
rfemur -47.1208 -9.11525 15.7942
rtibia 46.2432
rfoot -13.2672 -16.3346
rtoes -8.77795
lfemur -44.7969 -0.933535 -24.6926
ltibia 40.3924
lfoot -10.885 8.18791
ltoes -14.1212
825
root 0.25027 17.2758 -3.12792 15.3833 3.36023 4.70526
lowerback 22.5304 2.29836 0.0514529
upperback 12.7664 3.00895 1.10439
thorax 1.34698 1.48527 0.531406
lowerneck 6.52314 -15.9855 -7.16963
upperneck 20.0087 -21.7456 4.19982
head 6.38254 -10.6105 1.4768
rclavicle -1.74931e-014 1.43125e-014
rhumerus 67.4598 1.84206 -451.858
rradius 11.0091
rwrist 409.482
rhand -16.9847 20.2813
rfingers 7.12502
rthumb 9.25014 -9.49576
lclavicle -1.74931e-014 1.43125e-014
lhumerus 70.093 25.1881 36.4998
lradius 119.987
lwrist 51.2254
lhand 9.13553 30.1303
lfingers 7.12502
lthumb 34.306 56.8456
rfemur -47.1938 -9.18661 15.7833
rtibia 46.6355
rfoot -13.3357 -16.3773
rtoes -8.91593
lfemur -44.8674 -0.921502 -24.7265
ltibia 40.7775
lfoot -11.0383 8.11469
ltoes -14.2469
